P2
# Created by IrfanView
512 3
255
19 236 19 236 19 236 19 236 19 236 19 236 19 236 19 236 19 
236 19 236 19 236 19 236 19 236 19 236 19 236 19 236 19 
236 19 236 19 236 19 236 19 236 19 236 19 236 19 236 19 
236 19 236 19 236 19 236 19 236 19 236 19 236 19 236 19 
236 19 236 19 236 19 236 19 236 19 236 19 236 19 236 19 
236 19 236 19 236 19 236 19 236 19 236 19 236 19 236 19 
236 19 236 19 236 19 236 19 236 19 236 19 236 19 236 19 
236 19 236 19 236 19 236 19 236 19 236 19 236 19 236 19 
236 19 236 19 236 19 236 19 236 19 236 19 236 19 236 19 
236 19 236 19 236 19 236 19 236 19 236 19 236 19 236 19 
236 19 236 19 236 19 236 19 236 19 236 19 236 19 236 19 
236 19 236 19 236 19 236 19 236 19 236 19 236 19 236 19 
236 19 236 19 236 19 236 19 236 19 236 19 236 19 236 19 
236 19 236 19 236 19 236 19 236 19 236 19 236 19 236 19 
236 19 236 19 236 19 236 19 236 19 236 19 236 19 236 19 
236 19 236 19 236 19 236 19 236 19 236 19 236 19 236 19 
236 19 236 19 236 19 236 19 236 19 236 19 236 19 236 19 
236 19 236 19 236 19 236 19 236 19 236 19 236 19 236 19 
236 19 236 19 236 19 236 19 236 19 236 19 236 19 236 19 
236 19 236 19 236 19 236 19 236 19 236 19 236 19 236 19 
236 19 236 19 236 19 236 19 236 19 236 19 236 19 236 19 
236 19 236 19 236 19 236 19 236 19 236 19 236 19 236 19 
236 19 236 19 236 19 236 19 236 19 236 19 236 19 236 19 
236 19 236 19 236 19 236 19 236 19 236 19 236 19 236 19 
236 19 236 19 236 19 236 19 236 19 236 19 236 19 236 19 
236 19 236 19 236 19 236 19 236 19 236 19 236 19 236 19 
236 19 236 19 236 19 236 19 236 19 236 19 236 19 236 19 
236 19 236 19 236 19 236 19 236 19 236 19 236 19 236 19 
236 19 236 19 236 19 236 19 236 19 236 19 236 19 236 19 
236 19 236 19 236 19 236 19 236 19 236 19 236 19 236 19 
236 19 236 19 236 19 236 19 236 19 236 19 236 19 236 19 
236 19 236 19 236 19 236 19 236 19 236 19 236 19 236 236 19 236 19 236 19 236 19 236 19 236 19 236 19 236 19 236 
19 236 19 236 19 236 19 236 19 236 19 236 19 236 19 236 
19 236 19 236 19 236 19 236 19 236 19 236 19 236 19 236 
19 236 19 236 19 236 19 236 19 236 19 236 19 236 19 236 
19 236 19 236 19 236 19 236 19 236 19 236 19 236 19 236 
19 236 19 236 19 236 19 236 19 236 19 236 19 236 19 236 
19 236 19 236 19 236 19 236 19 236 19 236 19 236 19 236 
19 236 19 236 19 236 19 236 19 236 19 236 19 236 19 236 
19 236 19 236 19 236 19 236 19 236 19 236 19 236 19 236 
19 236 19 236 19 236 19 236 19 236 19 236 19 236 19 236 
19 236 19 236 19 236 19 236 19 236 19 236 19 236 19 236 
19 236 19 236 19 236 19 236 19 236 19 236 19 236 19 236 
19 236 19 236 19 236 19 236 19 236 19 236 19 236 19 236 
19 236 19 236 19 236 19 236 19 236 19 236 19 236 19 236 
19 236 19 236 19 236 19 236 19 236 19 236 19 236 19 236 
19 236 19 236 19 236 19 236 19 236 19 236 19 236 19 236 
19 236 19 236 19 236 19 236 19 236 19 236 19 236 19 236 
19 236 19 236 19 236 19 236 19 236 19 236 19 236 19 236 
19 236 19 236 19 236 19 236 19 236 19 236 19 236 19 236 
19 236 19 236 19 236 19 236 19 236 19 236 19 236 19 236 
19 236 19 236 19 236 19 236 19 236 19 236 19 236 19 236 
19 236 19 236 19 236 19 236 19 236 19 236 19 236 19 236 
19 236 19 236 19 236 19 236 19 236 19 236 19 236 19 236 
19 236 19 236 19 236 19 236 19 236 19 236 19 236 19 236 
19 236 19 236 19 236 19 236 19 236 19 236 19 236 19 236 
19 236 19 236 19 236 19 236 19 236 19 236 19 236 19 236 
19 236 19 236 19 236 19 236 19 236 19 236 19 236 19 236 
19 236 19 236 19 236 19 236 19 236 19 236 19 236 19 236 
19 236 19 236 19 236 19 236 19 236 19 236 19 236 19 236 
19 236 19 236 19 236 19 236 19 236 19 236 19 236 19 236 
19 236 19 236 19 236 19 236 19 236 19 236 19 236 19 236 
19 236 19 236 19 236 19 236 19 236 19 236 19 236 19 19 236 19 236 19 236 19 236 19 236 19 236 19 236 19 236 19 
236 19 236 19 236 19 236 19 236 19 236 19 236 19 236 19 
236 19 236 19 236 19 236 19 236 19 236 19 236 19 236 19 
236 19 236 19 236 19 236 19 236 19 236 19 236 19 236 19 
236 19 236 19 236 19 236 19 236 19 236 19 236 19 236 19 
236 19 236 19 236 19 236 19 236 19 236 19 236 19 236 19 
236 19 236 19 236 19 236 19 236 19 236 19 236 19 236 19 
236 19 236 19 236 19 236 19 236 19 236 19 236 19 236 19 
236 19 236 19 236 19 236 19 236 19 236 19 236 19 236 19 
236 19 236 19 236 19 236 19 236 19 236 19 236 19 236 19 
236 19 236 19 236 19 236 19 236 19 236 19 236 19 236 19 
236 19 236 19 236 19 236 19 236 19 236 19 236 19 236 19 
236 19 236 19 236 19 236 19 236 19 236 19 236 19 236 19 
236 19 236 19 236 19 236 19 236 19 236 19 236 19 236 19 
236 19 236 19 236 19 236 19 236 19 236 19 236 19 236 19 
236 19 236 19 236 19 236 19 236 19 236 19 236 19 236 19 
236 19 236 19 236 19 236 19 236 19 236 19 236 19 236 19 
236 19 236 19 236 19 236 19 236 19 236 19 236 19 236 19 
236 19 236 19 236 19 236 19 236 19 236 19 236 19 236 19 
236 19 236 19 236 19 236 19 236 19 236 19 236 19 236 19 
236 19 236 19 236 19 236 19 236 19 236 19 236 19 236 19 
236 19 236 19 236 19 236 19 236 19 236 19 236 19 236 19 
236 19 236 19 236 19 236 19 236 19 236 19 236 19 236 19 
236 19 236 19 236 19 236 19 236 19 236 19 236 19 236 19 
236 19 236 19 236 19 236 19 236 19 236 19 236 19 236 19 
236 19 236 19 236 19 236 19 236 19 236 19 236 19 236 19 
236 19 236 19 236 19 236 19 236 19 236 19 236 19 236 19 
236 19 236 19 236 19 236 19 236 19 236 19 236 19 236 19 
236 19 236 19 236 19 236 19 236 19 236 19 236 19 236 19 
236 19 236 19 236 19 236 19 236 19 236 19 236 19 236 19 
236 19 236 19 236 19 236 19 236 19 236 19 236 19 236 19 
236 19 236 19 236 19 236 19 236 19 236 19 236 19 236 