P2
# cpu_baseline.pgm created by ECE1756 Assignment 2
512 3
255
19 236 19 236 19 236 19 236 19 236 19 236 19 236 19 236 19 236 19 236 19 236 19 236 19 236 19 236 19 236 19 236 19 236 19 236 19 236 19 236 19 236 19 236 19 236 19 236 19 236 19 236 19 236 19 236 19 236 19 236 19 236 19 236 19 236 19 236 19 236 19 236 19 236 19 236 19 236 19 236 19 236 19 236 19 236 19 236 19 236 19 236 19 236 19 236 19 236 19 236 19 236 19 236 19 236 19 236 19 236 19 236 19 236 19 236 19 236 19 236 19 236 19 236 19 236 19 236 19 236 19 236 19 236 19 236 19 236 19 236 19 236 19 236 19 236 19 236 19 236 19 236 19 236 19 236 19 236 19 236 19 236 19 236 19 236 19 236 19 236 19 236 19 236 19 236 19 236 19 236 19 236 19 236 19 236 19 236 19 236 19 236 19 236 19 236 19 236 19 236 19 236 19 236 19 236 19 236 19 236 19 236 19 236 19 236 19 236 19 236 19 236 19 236 19 236 19 236 19 236 19 236 19 236 19 236 19 236 19 236 19 236 19 236 19 236 19 236 19 236 19 236 19 236 19 236 19 236 19 236 19 236 19 236 19 236 19 236 19 236 19 236 19 236 19 236 19 236 19 236 19 236 19 236 19 236 19 236 19 236 19 236 19 236 19 236 19 236 19 236 19 236 19 236 19 236 19 236 19 236 19 236 19 236 19 236 19 236 19 236 19 236 19 236 19 236 19 236 19 236 19 236 19 236 19 236 19 236 19 236 19 236 19 236 19 236 19 236 19 236 19 236 19 236 19 236 19 236 19 236 19 236 19 236 19 236 19 236 19 236 19 236 19 236 19 236 19 236 19 236 19 236 19 236 19 236 19 236 19 236 19 236 19 236 19 236 19 236 19 236 19 236 19 236 19 236 19 236 19 236 19 236 19 236 19 236 19 236 19 236 19 236 19 236 19 236 19 236 19 236 19 236 19 236 19 236 19 236 19 236 19 236 19 236 19 236 19 236 19 236 19 236 19 236 19 236 19 236 19 236 19 236 19 236 19 236 19 236 19 236 19 236 19 236 19 236 19 236 19 236 19 236 19 236 19 236 19 236 19 236 19 236 19 236 19 236 19 236 19 236 19 236 19 236 19 236 19 236 19 236 19 236 
236 19 236 19 236 19 236 19 236 19 236 19 236 19 236 19 236 19 236 19 236 19 236 19 236 19 236 19 236 19 236 19 236 19 236 19 236 19 236 19 236 19 236 19 236 19 236 19 236 19 236 19 236 19 236 19 236 19 236 19 236 19 236 19 236 19 236 19 236 19 236 19 236 19 236 19 236 19 236 19 236 19 236 19 236 19 236 19 236 19 236 19 236 19 236 19 236 19 236 19 236 19 236 19 236 19 236 19 236 19 236 19 236 19 236 19 236 19 236 19 236 19 236 19 236 19 236 19 236 19 236 19 236 19 236 19 236 19 236 19 236 19 236 19 236 19 236 19 236 19 236 19 236 19 236 19 236 19 236 19 236 19 236 19 236 19 236 19 236 19 236 19 236 19 236 19 236 19 236 19 236 19 236 19 236 19 236 19 236 19 236 19 236 19 236 19 236 19 236 19 236 19 236 19 236 19 236 19 236 19 236 19 236 19 236 19 236 19 236 19 236 19 236 19 236 19 236 19 236 19 236 19 236 19 236 19 236 19 236 19 236 19 236 19 236 19 236 19 236 19 236 19 236 19 236 19 236 19 236 19 236 19 236 19 236 19 236 19 236 19 236 19 236 19 236 19 236 19 236 19 236 19 236 19 236 19 236 19 236 19 236 19 236 19 236 19 236 19 236 19 236 19 236 19 236 19 236 19 236 19 236 19 236 19 236 19 236 19 236 19 236 19 236 19 236 19 236 19 236 19 236 19 236 19 236 19 236 19 236 19 236 19 236 19 236 19 236 19 236 19 236 19 236 19 236 19 236 19 236 19 236 19 236 19 236 19 236 19 236 19 236 19 236 19 236 19 236 19 236 19 236 19 236 19 236 19 236 19 236 19 236 19 236 19 236 19 236 19 236 19 236 19 236 19 236 19 236 19 236 19 236 19 236 19 236 19 236 19 236 19 236 19 236 19 236 19 236 19 236 19 236 19 236 19 236 19 236 19 236 19 236 19 236 19 236 19 236 19 236 19 236 19 236 19 236 19 236 19 236 19 236 19 236 19 236 19 236 19 236 19 236 19 236 19 236 19 236 19 236 19 236 19 236 19 236 19 236 19 236 19 236 19 236 19 236 19 236 19 236 19 236 19 236 19 236 19 236 19 236 19 236 19 
19 236 19 236 19 236 19 236 19 236 19 236 19 236 19 236 19 236 19 236 19 236 19 236 19 236 19 236 19 236 19 236 19 236 19 236 19 236 19 236 19 236 19 236 19 236 19 236 19 236 19 236 19 236 19 236 19 236 19 236 19 236 19 236 19 236 19 236 19 236 19 236 19 236 19 236 19 236 19 236 19 236 19 236 19 236 19 236 19 236 19 236 19 236 19 236 19 236 19 236 19 236 19 236 19 236 19 236 19 236 19 236 19 236 19 236 19 236 19 236 19 236 19 236 19 236 19 236 19 236 19 236 19 236 19 236 19 236 19 236 19 236 19 236 19 236 19 236 19 236 19 236 19 236 19 236 19 236 19 236 19 236 19 236 19 236 19 236 19 236 19 236 19 236 19 236 19 236 19 236 19 236 19 236 19 236 19 236 19 236 19 236 19 236 19 236 19 236 19 236 19 236 19 236 19 236 19 236 19 236 19 236 19 236 19 236 19 236 19 236 19 236 19 236 19 236 19 236 19 236 19 236 19 236 19 236 19 236 19 236 19 236 19 236 19 236 19 236 19 236 19 236 19 236 19 236 19 236 19 236 19 236 19 236 19 236 19 236 19 236 19 236 19 236 19 236 19 236 19 236 19 236 19 236 19 236 19 236 19 236 19 236 19 236 19 236 19 236 19 236 19 236 19 236 19 236 19 236 19 236 19 236 19 236 19 236 19 236 19 236 19 236 19 236 19 236 19 236 19 236 19 236 19 236 19 236 19 236 19 236 19 236 19 236 19 236 19 236 19 236 19 236 19 236 19 236 19 236 19 236 19 236 19 236 19 236 19 236 19 236 19 236 19 236 19 236 19 236 19 236 19 236 19 236 19 236 19 236 19 236 19 236 19 236 19 236 19 236 19 236 19 236 19 236 19 236 19 236 19 236 19 236 19 236 19 236 19 236 19 236 19 236 19 236 19 236 19 236 19 236 19 236 19 236 19 236 19 236 19 236 19 236 19 236 19 236 19 236 19 236 19 236 19 236 19 236 19 236 19 236 19 236 19 236 19 236 19 236 19 236 19 236 19 236 19 236 19 236 19 236 19 236 19 236 19 236 19 236 19 236 19 236 19 236 19 236 19 236 19 236 19 236 19 236 19 236 19 236 19 236 19 236 
